PathFileType	4	(x/y/z)	S02_PSF_T05
DataRate	CameraRate	NumFrames	NumMarkers	Units	OrigDataRate	OrigDataStartFrame	OrigNumFrames
240	240	7	51	mm	240	359	410
Frame#	Time	Sternum			R.Acromium			L.Acromium			Top.Head			R.ASIS			L.ASIS			R.PSIS			L.PSIS			R.Great.Tro			L.Great.Tro			R.Iliac.Crest			L.Iliac.Crest			V.Sacral			R.Thigh.Upper.Post			R.Thigh.Lower.Ant			R.Thigh.Lower.Post			R.Thigh.Upper.Ant			R.Knee.Lat			R.Knee.Med			R.Shank.Upper.Post			R.Shank.Lower.Ant			R.Shank.Lower.Post			R.Shank.Upper.Ant			R.Ankle.Lat			R.Ankle.Med			R.Heel.Upper			R.Heel.Med			R.Heel.Lat			R.Toe.Lat			R.Toe.Med			R.Toe.Tip			L.Thigh.Upper.Post			L.Thigh.Lower.Ant			L.Thigh.Lower.Post			L.Thigh.Upper.Ant			L.Knee.Lat			L.Knee.Med			L.Shank.Upper.Post			L.Shank.Lower.Ant			L.Shank.Lower.Post			L.Shank.Upper.Ant			L.Ankle.Lat			L.Ankle.Med			L.Heel.Upper			L.Heel.Med			L.Heel.Lat			L.Toe.Lat			L.Toe.Med			L.Toe.Tip			Cervical.Spine			Back			
		X1	Y1	Z1	X2	Y2	Z2	X3	Y3	Z3	X4	Y4	Z4	X5	Y5	Z5	X6	Y6	Z6	X7	Y7	Z7	X8	Y8	Z8	X9	Y9	Z9	X10	Y10	Z10	X11	Y11	Z11	X12	Y12	Z12	X13	Y13	Z13	X14	Y14	Z14	X15	Y15	Z15	X16	Y16	Z16	X17	Y17	Z17	X18	Y18	Z18	X19	Y19	Z19	X20	Y20	Z20	X21	Y21	Z21	X22	Y22	Z22	X23	Y23	Z23	X24	Y24	Z24	X25	Y25	Z25	X26	Y26	Z26	X27	Y27	Z27	X28	Y28	Z28	X29	Y29	Z29	X30	Y30	Z30	X31	Y31	Z31	X32	Y32	Z32	X33	Y33	Z33	X34	Y34	Z34	X35	Y35	Z35	X36	Y36	Z36	X37	Y37	Z37	X38	Y38	Z38	X39	Y39	Z39	X40	Y40	Z40	X41	Y41	Z41	X42	Y42	Z42	X43	Y43	Z43	X44	Y44	Z44	X45	Y45	Z45	X46	Y46	Z46	X47	Y47	Z47	X48	Y48	Z48	X49	Y49	Z49	X50	Y50	Z50	X51	Y51	Z51	

359	1.4917	442.44	1099.1	351.75	339.09	1336.6	489.25	345.43	1337.3	197.39	382.77	1622.7	344.81	414.17	939.01	446.89	407.19	921.69	237.07	201.93	968.19	405.99	189.81	974.47	333.71	359.81	817.49	546.4	267.69	830.88	160.03	312.83	975.67	512.58	282.43	972.74	181.84	169.99	923.2	365.29	442.48	626.53	535	518.61	571.79	495.06	458.19	538.72	517.62	497.86	658.04	509.47	500.57	476.34	502.7	490.95	455.88	359.37	477.56	260.96	495.95	571.69	204.11	485.67	505.29	192.89	489.55	549.89	269.91	498.6	548.89	107.8	483.4	562.87	122.3	399.9	499.08	74.611	421.64	522.08	46.751	396.54	505.24	45.08	457.98	657.6	75.021	516.16	700.39	76.629	415.28	733.63	116.18	473.53	205.56	616.14	203.43	268.75	525.78	207.12	192.88	529.71	229.9	274.75	617.99	182.44	237.42	448.64	223	245.34	452.25	361.91	122.74	297.67	239.95	175.49	200.02	256.07	108.2	227.99	260.33	183.57	273.68	236.31	112.53	108.27	279.11	128.23	105.08	358.09	51.801	76.461	314.4	60.107	49.844	347.6	54.959	48.688	286.14	219.25	34.517	250.68	245.01	43.848	359.72	304.44	55.674	310.72	267.21	1397.5	342.92	185.52	1148.7	345.95
360	1.4958	447.76	1097.9	351.79	344.34	1335.4	489.54	350.69	1336.4	197.72	387.97	1621.7	345.34	420.03	937.74	446.63	412.17	920.46	236.71	207.54	967.17	406.58	195.17	973.5	334.35	366.09	816.38	546.2	271.94	830.37	160.21	318.84	974.5	512.76	287.21	971.73	182.07	175.42	922.22	365.97	448.73	625.61	534.85	523.93	570.44	493.75	463.94	537.63	517.84	503.53	656.85	507.81	505.92	475.18	502.52	494.7	454.08	358.88	487.64	259.42	495.72	583.25	204.91	485.4	517.08	191.99	489.14	559.78	270.2	498.41	563.1	107.82	482.98	576.4	122.68	399.5	513.89	73.299	421.43	537.49	46.069	396.22	520.95	43.925	457.7	672.82	77.62	515.32	715.13	80.489	414.26	747.62	120.79	472.45	209.29	615.96	203.54	272.02	525.29	207.05	196.23	529.58	230	278.44	617.47	182.39	240.36	448.22	222.95	248.41	451.79	361.85	124.61	298	239.88	176.63	199.97	256.06	109.55	228.44	260.25	185.27	273.57	236.28	112.92	108.69	279.11	128.58	105.43	358.09	51.995	76.946	314.37	60.213	50.339	347.61	55.062	49.127	286.15	219.29	34.488	250.69	245.08	43.809	359.71	304.54	55.515	310.71	272.46	1396.6	343.28	190.77	1147.7	346.11
361	1.5	453.08	1096.8	351.84	349.61	1334.3	489.85	355.96	1335.5	198.06	393.18	1620.6	345.89	425.9	936.43	446.36	417.17	919.23	236.35	213.16	966.13	407.21	200.54	972.5	335.02	372.36	815.2	545.99	276.23	829.84	160.39	324.88	973.29	512.96	291.97	970.69	182.31	180.86	921.21	366.69	455	624.68	534.72	529.29	569.11	492.48	469.74	536.54	518.06	509.2	655.66	506.19	511.31	474.01	502.36	498.5	452.29	358.41	497.51	257.98	495.47	594.47	205.72	485.07	528.56	191.2	488.69	569.43	270.48	498.18	576.88	107.93	482.48	589.48	123.15	399.03	528.23	72.153	421.19	552.38	45.553	395.83	536.19	42.935	457.38	687.56	80.219	514.34	729.31	84.342	413.09	761.09	125.32	471.2	213.1	615.76	203.65	275.38	524.78	206.97	199.67	529.44	230.1	282.22	616.93	182.34	243.39	447.77	222.89	251.57	451.32	361.78	126.56	298.34	239.79	177.82	199.93	256.03	110.96	228.91	260.16	187.04	273.44	236.24	113.34	109.13	279.09	128.94	105.8	358.07	52.2	77.467	314.32	60.322	50.875	347.6	55.171	49.596	286.14	219.33	34.456	250.7	245.15	43.772	359.7	304.65	55.353	310.69	277.72	1395.6	343.65	196.03	1146.7	346.29
362	1.5042	458.42	1095.5	351.89	354.91	1333.1	490.17	361.24	1334.5	198.42	398.39	1619.6	346.44	431.79	935.07	446.08	422.18	917.99	235.97	218.79	965.05	407.87	205.92	971.47	335.74	378.64	813.96	545.76	280.58	829.29	160.58	330.96	972.04	513.18	296.72	969.63	182.58	186.31	920.18	367.44	461.28	623.74	534.6	534.68	567.8	491.24	475.59	535.45	518.27	514.88	654.49	504.63	516.73	472.85	502.21	502.36	450.53	357.97	507.16	256.62	495.2	605.34	206.51	484.69	539.7	190.49	488.21	578.82	270.76	497.91	590.21	108.12	481.91	602.08	123.7	398.48	542.08	71.15	420.89	566.73	45.172	395.37	550.93	42.088	456.99	701.78	82.78	513.23	742.9	88.139	411.78	774.03	129.73	469.81	216.99	615.53	203.75	278.82	524.24	206.89	203.19	529.26	230.19	286.08	616.38	182.28	246.52	447.3	222.82	254.82	450.82	361.7	128.59	298.69	239.67	179.06	199.89	256	112.43	229.38	260.04	188.88	273.31	236.19	113.78	109.59	279.04	129.31	106.21	358.04	52.416	78.026	314.25	60.435	51.456	347.58	55.288	50.098	286.11	219.38	34.423	250.71	245.22	43.737	359.68	304.76	55.188	310.67	282.99	1394.6	344.04	201.29	1145.7	346.5
363	1.5083	463.77	1094.3	351.96	360.24	1331.9	490.5	366.54	1333.5	198.8	403.6	1618.5	347.01	437.68	933.68	445.8	427.21	916.76	235.58	224.42	963.95	408.56	211.33	970.42	336.48	384.92	812.68	545.54	285	828.73	160.77	337.06	970.77	513.41	301.45	968.53	182.86	191.78	919.12	368.21	467.58	622.8	534.49	540.12	566.53	490.05	481.49	534.38	518.45	520.57	653.34	503.15	522.22	471.7	502.07	506.32	448.8	357.55	516.58	255.36	494.91	615.84	207.27	484.26	550.48	189.85	487.68	587.96	271	497.6	603.06	108.34	481.26	614.18	124.28	397.87	555.39	70.268	420.55	580.5	44.898	394.85	565.12	41.359	456.54	715.45	85.264	512.02	755.88	91.831	410.34	786.42	133.98	468.29	220.96	615.28	203.86	282.35	523.69	206.8	206.81	529.07	230.29	290.01	615.8	182.23	249.74	446.81	222.75	258.16	450.3	361.62	130.71	299.04	239.52	180.35	199.84	255.96	113.96	229.87	259.9	190.79	273.17	236.12	114.25	110.08	278.98	129.7	106.64	358.01	52.644	78.628	314.15	60.554	52.087	347.53	55.413	50.637	286.07	219.43	34.387	250.72	245.29	43.704	359.65	304.88	55.02	310.66	288.27	1393.6	344.46	206.57	1144.6	346.73
364	1.5125	469.14	1092.9	352.03	365.59	1330.7	490.85	371.84	1332.5	199.2	408.8	1617.4	347.6	443.59	932.26	445.52	432.26	915.54	235.19	230.07	962.83	409.29	216.74	969.35	337.25	391.2	811.37	545.3	289.5	828.14	160.97	343.19	969.46	513.67	306.17	967.41	183.16	197.26	918.04	369.01	473.88	621.87	534.38	545.61	565.31	488.9	487.44	533.33	518.58	526.27	652.22	501.74	527.76	470.58	501.9	510.39	447.14	357.14	525.75	254.17	494.59	625.97	207.98	483.76	560.9	189.26	487.13	596.84	271.21	497.23	615.39	108.58	480.55	625.76	124.86	397.19	568.15	69.483	420.17	593.65	44.701	394.26	578.72	40.724	456.04	728.55	87.633	510.7	768.23	95.367	408.78	798.24	138.01	466.66	225.01	615.01	203.96	285.96	523.13	206.71	210.5	528.85	230.38	294.02	615.21	182.17	253.06	446.3	222.68	261.59	449.76	361.52	132.9	299.41	239.36	181.69	199.81	255.9	115.55	230.38	259.74	192.78	273.03	236.05	114.75	110.59	278.9	130.1	107.11	357.96	52.888	79.279	314.03	60.68	52.771	347.47	55.548	51.22	286	219.48	34.348	250.73	245.36	43.673	359.62	305	54.847	310.64	293.57	1392.5	344.89	211.86	1143.5	346.98
365	1.5167	474.52	1091.6	352.11	370.96	1329.4	491.22	377.16	1331.4	199.61	414.01	1616.3	348.19	449.5	930.82	445.24	437.33	914.33	234.8	235.72	961.69	410.04	222.17	968.25	338.06	397.48	810.03	545.07	294.07	827.54	161.18	349.34	968.14	513.94	310.88	966.27	183.47	202.76	916.94	369.84	480.18	620.94	534.25	551.17	564.16	487.79	493.44	532.3	518.65	532	651.14	500.43	533.39	469.5	501.72	514.58	445.55	356.74	534.66	253.04	494.23	635.71	208.61	483.2	570.93	188.71	486.53	605.45	271.35	496.81	627.18	108.81	479.78	636.8	125.42	396.44	580.31	68.775	419.73	606.16	44.553	393.62	591.71	40.158	455.48	741.04	89.847	509.29	779.96	98.698	407.13	809.48	141.77	464.92	229.14	614.72	204.07	289.65	522.55	206.61	214.29	528.61	230.47	298.11	614.61	182.12	256.47	445.78	222.6	265.13	449.2	361.41	135.18	299.79	239.17	183.08	199.78	255.83	117.2	230.91	259.56	194.83	272.9	235.97	115.27	111.14	278.79	130.51	107.62	357.91	53.149	79.982	313.88	60.815	53.514	347.38	55.694	51.851	285.91	219.54	34.306	250.73	245.42	43.646	359.59	305.12	54.67	310.63	298.89	1391.5	345.34	217.17	1142.4	347.26
